<svg width="24" height="24" viewBox="0 0 120 120" fill="none" xmlns="http://www.w3.org/2000/svg">
<path d="M22.4706 38.9318C43.098 27.0228 76.5415 27.0227 97.1688 38.9318C117.796 50.841 117.796 70.1505 97.1688 82.0597C76.5415 93.9689 43.098 93.9687 22.4706 82.0597C1.84316 70.1505 1.84316 50.841 22.4706 38.9318ZM32.9315 45.1017C33.4575 45.8769 36.0372 47.6712 36.9784 48.4699C41.7431 52.5135 47.9027 57.414 45.7997 62.6115C43.962 67.1527 38.067 71.4362 33.4002 75.1691C33.2149 75.3174 33.1234 75.4642 33.1288 75.6457C33.3088 75.8143 33.2065 75.7601 33.5506 75.8371C35.1054 75.4462 37.7586 74.1206 39.2625 73.5256C47.7386 70.1626 56.7803 66.5622 67.3407 69.1642C74.1333 70.838 79.6147 73.2614 85.5916 75.7179C86.0299 75.898 86.2666 75.8983 86.6913 75.7297C86.4026 75.2061 84.9712 74.1932 84.3612 73.7218C81.2315 71.3031 78.599 68.9653 76.1659 66.297C72.3921 62.1585 72.618 58.2026 76.4911 54.1183C79.2938 51.1257 82.7372 48.3027 86.2997 45.5841C86.4735 45.4513 86.5282 45.3064 86.5204 45.1437C86.3342 44.9838 86.457 45.0334 86.1512 44.9787C85.5003 45.0589 81.3709 46.8732 80.4539 47.2394C65.9118 53.0471 59.0456 54.7429 43.7791 49.0256C41.5955 48.1923 39.4374 47.3358 37.3065 46.4582C36.7234 46.216 33.9248 44.9259 33.4022 44.9347L32.9315 45.1017Z" fill="white"/>
</svg>
